<svg width="48" height="48" viewBox="0 0 48 48" fill="none" xmlns="http://www.w3.org/2000/svg">
<path d="M6 11.9995H10H42" stroke="#E73F5D" stroke-width="4" stroke-linecap="round" stroke-linejoin="round"/>
<path d="M15.9996 11.9998V7.99976C15.9996 6.93889 16.4211 5.92147 17.1712 5.17133C17.9214 4.42118 18.9388 3.99976 19.9996 3.99976H27.9996C29.0605 3.99976 30.0779 4.42118 30.8281 5.17133C31.5782 5.92147 31.9996 6.93889 31.9996 7.99976V11.9998M37.9996 11.9998V39.9998C37.9996 41.0606 37.5782 42.078 36.8281 42.8282C36.0779 43.5783 35.0605 43.9998 33.9996 43.9998H13.9996C12.9388 43.9998 11.9214 43.5783 11.1712 42.8282C10.4211 42.078 9.99963 41.0606 9.99963 39.9998V11.9998H37.9996Z" stroke="#E73F5D" stroke-width="4" stroke-linecap="round" stroke-linejoin="round"/>
</svg>
